<?xml version="1.0" encoding="UTF-8"?>
<!DOCTYPE svg PUBLIC "-//W3C//DTD SVG 1.1//EN"
    "http://www.w3.org/Graphics/SVG/1.1/DTD/svg11.dtd">
<svg xmlns="http://www.w3.org/2000/svg" xmlns:xlink="http://www.w3.org/1999/xlink" version="1.1" width="500.00000000000006" height="96.15384615384616" font-size="1" viewBox="0 0 500 96" stroke="rgb(0,0,0)" stroke-opacity="1"><g><g fill="rgb(0,0,0)" fill-opacity="0.0"><g stroke="rgb(0,0,0)" stroke-opacity="1.0" stroke-width="0.8770580193070295" stroke-linecap="butt" stroke-linejoin="miter" font-size="1.0em" stroke-miterlimit="10.0"><g stroke="rgb(128,128,128)" stroke-opacity="1.0" stroke-width="0.4370629370629371"><g><path d="M 454.54545454545456,96.15384615384616 v -87.41258741258741 " /></g><g><path d="M 437.06293706293707,96.15384615384616 v -87.41258741258741 " /></g><g><path d="M 419.58041958041963,96.15384615384616 v -87.41258741258741 " /></g><g><path d="M 402.09790209790214,96.15384615384616 v -87.41258741258741 " /></g><g><path d="M 384.61538461538464,96.15384615384616 v -87.41258741258741 " /></g><g><path d="M 367.13286713286715,96.15384615384616 v -87.41258741258741 " /></g><g><path d="M 349.65034965034965,96.15384615384616 v -87.41258741258741 " /></g><g><path d="M 332.16783216783216,96.15384615384616 v -87.41258741258741 " /></g><g><path d="M 314.6853146853147,96.15384615384616 v -87.41258741258741 " /></g><g><path d="M 297.2027972027972,96.15384615384616 v -87.41258741258741 " /></g><g><path d="M 279.72027972027973,96.15384615384616 v -87.41258741258741 " /></g><g><path d="M 262.23776223776224,96.15384615384616 v -87.41258741258741 " /></g><g><path d="M 244.75524475524477,96.15384615384616 v -87.41258741258741 " /></g><g><path d="M 227.27272727272728,96.15384615384616 v -87.41258741258741 " /></g><g><path d="M 209.79020979020981,96.15384615384616 v -87.41258741258741 " /></g><g><path d="M 192.30769230769232,96.15384615384616 v -87.41258741258741 " /></g><g><path d="M 174.82517482517483,96.15384615384616 v -87.41258741258741 " /></g><g><path d="M 157.34265734265736,96.15384615384616 v -87.41258741258741 " /></g><g><path d="M 139.86013986013987,96.15384615384616 v -87.41258741258741 " /></g><g><path d="M 122.37762237762239,96.15384615384616 v -87.41258741258741 " /></g><g><path d="M 104.89510489510491,96.15384615384616 v -87.41258741258741 " /></g><g><path d="M 87.41258741258741,96.15384615384616 v -87.41258741258741 " /></g><g><path d="M 69.93006993006993,96.15384615384616 v -87.41258741258741 " /></g><g><path d="M 52.447552447552454,96.15384615384616 v -87.41258741258741 " /></g><g><path d="M 34.96503496503497,96.15384615384616 v -87.41258741258741 " /></g><g><path d="M 17.482517482517483,96.15384615384616 v -87.41258741258741 " /></g><g><path d="M 0.0,96.15384615384616 v -87.41258741258741 " /></g><g><path d="M 0.0,8.741258741258747 h 454.54545454545456 " /></g><g><path d="M 0.0,26.223776223776227 h 454.54545454545456 " /></g><g><path d="M 0.0,43.70629370629371 h 454.54545454545456 " /></g><g><path d="M 0.0,61.188811188811194 h 454.54545454545456 " /></g><g><path d="M 0.0,78.67132867132868 h 454.54545454545456 " /></g><g><path d="M 0.0,96.15384615384616 h 454.54545454545456 " /></g></g><g stroke="rgb(255,0,0)" stroke-opacity="1.0" stroke-width="0.8741258741258742"><path d="M 0.0,96.15384615384616 l 17.482517482517483,-17.482517482517483 l 17.482517482517483,-17.482517482517483 l 17.482517482517483,17.482517482517483 l 17.482517482517483,-17.482517482517483 l 17.482517482517483,-17.482517482517483 l 17.482517482517483,-17.482517482517483 l 17.482517482517483,17.482517482517483 l 17.482517482517483,-17.482517482517483 l 17.482517482517483,17.482517482517483 l 17.482517482517483,17.482517482517483 l 17.482517482517483,-17.482517482517483 l 17.482517482517483,17.482517482517483 l 17.482517482517483,-17.482517482517483 l 17.482517482517483,-17.482517482517483 l 17.482517482517483,-17.482517482517483 l 17.482517482517483,17.482517482517483 l 17.482517482517483,17.482517482517483 l 17.482517482517483,17.482517482517483 l 17.482517482517483,17.482517482517483 l 17.482517482517483,17.482517482517483 l 17.482517482517483,-17.482517482517483 l 17.482517482517483,17.482517482517483 l 17.482517482517483,-17.482517482517483 l 17.482517482517483,-17.482517482517483 l 17.482517482517483,17.482517482517483 l 17.482517482517483,17.482517482517483 " /></g></g></g></g></svg>