<?xml version="1.0" encoding="UTF-8"?>
<!DOCTYPE svg PUBLIC "-//W3C//DTD SVG 1.1//EN"
    "http://www.w3.org/Graphics/SVG/1.1/DTD/svg11.dtd">
<svg xmlns="http://www.w3.org/2000/svg" xmlns:xlink="http://www.w3.org/1999/xlink" version="1.1" width="256.0" height="160.0" font-size="1" viewBox="0 0 256 160" stroke="rgb(0,0,0)" stroke-opacity="1"><g><g fill="rgb(0,0,0)" fill-opacity="0.0"><g stroke="rgb(0,0,0)" stroke-opacity="1.0" stroke-width="0.8095430810031051" stroke-linecap="butt" stroke-linejoin="miter" font-size="1.0em" stroke-miterlimit="10.0"><g stroke="rgb(0,0,0)" stroke-opacity="1.0" stroke-width="1.4545454545454546"><g><path d="M 232.72727272727272,0.0 v 29.09090909090909 " /></g><g><path d="M 203.63636363636363,0.0 v 29.09090909090909 " /></g><g><path d="M 174.54545454545453,0.0 v 58.18181818181818 " /></g><g><path d="M 145.45454545454544,0.0 v 58.18181818181818 " /></g><g><path d="M 116.36363636363636,0.0 v 58.18181818181818 " /></g><g><path d="M 87.27272727272727,0.0 v 116.36363636363636 " /></g><g><path d="M 58.18181818181818,0.0 v 116.36363636363636 " /></g><g><path d="M 29.09090909090909,0.0 v 145.45454545454544 " /></g><g><path d="M 0.0,0.0 v 145.45454545454544 " /></g><g><path d="M 0.0,145.45454545454544 h 29.09090909090909 " /></g><g><path d="M 0.0,116.36363636363636 h 87.27272727272727 " /></g><g><path d="M 0.0,87.27272727272727 h 87.27272727272727 " /></g><g><path d="M 0.0,58.18181818181818 h 174.54545454545453 " /></g><g><path d="M 0.0,29.09090909090909 h 232.72727272727272 " /></g><g><path d="M 0.0,0.0 h 232.72727272727272 " /></g></g><g stroke="rgb(255,0,0)" stroke-opacity="1.0"><g stroke="rgb(0,0,0)" stroke-opacity="1.0" fill="rgb(255,0,0)" fill-opacity="1.0" stroke-width="0.7272727272727273"><g fill="rgb(255,0,0)" fill-opacity="1.0"><g fill="rgb(255,0,0)" fill-opacity="1.0"><path d="M 23.272727272727273,130.9090909090909 c 0.0,-4.819939634886924 -3.907333092385801,-8.727272727272727 -8.727272727272725 -8.727272727272727c -4.819939634886924,-2.951264350961418e-16 -8.727272727272727,3.9073330923858007 -8.727272727272727 8.727272727272723c -5.902528701922836e-16,4.819939634886924 3.9073330923858003,8.727272727272727 8.727272727272723 8.727272727272727c 4.819939634886924,8.853793052884255e-16 8.727272727272727,-3.9073330923858 8.72727272727273 -8.727272727272723Z" /></g></g></g><g stroke="rgb(0,0,0)" stroke-opacity="1.0" fill="rgb(255,0,0)" fill-opacity="1.0" stroke-width="0.7272727272727273"><g fill="rgb(255,0,0)" fill-opacity="1.0"><g fill="rgb(255,0,0)" fill-opacity="1.0"><path d="M 81.45454545454544,101.81818181818181 c 0.0,-4.819939634886924 -3.907333092385801,-8.727272727272727 -8.727272727272725 -8.727272727272727c -4.819939634886924,-2.951264350961418e-16 -8.727272727272727,3.9073330923858007 -8.727272727272727 8.727272727272723c -5.902528701922836e-16,4.819939634886924 3.9073330923858003,8.727272727272727 8.727272727272723 8.727272727272727c 4.819939634886924,8.853793052884255e-16 8.727272727272727,-3.9073330923858 8.72727272727273 -8.727272727272723Z" /></g></g></g><g stroke="rgb(0,0,0)" stroke-opacity="1.0" fill="rgb(255,0,0)" fill-opacity="1.0" stroke-width="0.7272727272727273"><g fill="rgb(255,0,0)" fill-opacity="1.0"><g fill="rgb(255,0,0)" fill-opacity="1.0"><path d="M 52.36363636363636,101.81818181818181 c 0.0,-4.819939634886924 -3.907333092385801,-8.727272727272727 -8.727272727272725 -8.727272727272727c -4.819939634886924,-2.951264350961418e-16 -8.727272727272727,3.9073330923858007 -8.727272727272727 8.727272727272723c -5.902528701922836e-16,4.819939634886924 3.9073330923858003,8.727272727272727 8.727272727272723 8.727272727272727c 4.819939634886924,8.853793052884255e-16 8.727272727272727,-3.9073330923858 8.72727272727273 -8.727272727272723Z" /></g></g></g><g stroke="rgb(0,0,0)" stroke-opacity="1.0" fill="rgb(255,0,0)" fill-opacity="1.0" stroke-width="0.7272727272727273"><g fill="rgb(255,0,0)" fill-opacity="1.0"><g fill="rgb(255,0,0)" fill-opacity="1.0"><path d="M 23.272727272727273,101.81818181818181 c 0.0,-4.819939634886924 -3.907333092385801,-8.727272727272727 -8.727272727272725 -8.727272727272727c -4.819939634886924,-2.951264350961418e-16 -8.727272727272727,3.9073330923858007 -8.727272727272727 8.727272727272723c -5.902528701922836e-16,4.819939634886924 3.9073330923858003,8.727272727272727 8.727272727272723 8.727272727272727c 4.819939634886924,8.853793052884255e-16 8.727272727272727,-3.9073330923858 8.72727272727273 -8.727272727272723Z" /></g></g></g><g stroke="rgb(0,0,0)" stroke-opacity="1.0" fill="rgb(255,0,0)" fill-opacity="1.0" stroke-width="0.7272727272727273"><g fill="rgb(255,0,0)" fill-opacity="1.0"><g fill="rgb(255,0,0)" fill-opacity="1.0"><path d="M 81.45454545454544,72.72727272727272 c 0.0,-4.819939634886924 -3.907333092385801,-8.727272727272727 -8.727272727272725 -8.727272727272727c -4.819939634886924,-2.951264350961418e-16 -8.727272727272727,3.9073330923858007 -8.727272727272727 8.727272727272723c -5.902528701922836e-16,4.819939634886924 3.9073330923858003,8.727272727272727 8.727272727272723 8.727272727272727c 4.819939634886924,8.853793052884255e-16 8.727272727272727,-3.9073330923858 8.72727272727273 -8.727272727272723Z" /></g></g></g><g stroke="rgb(0,0,0)" stroke-opacity="1.0" fill="rgb(255,0,0)" fill-opacity="1.0" stroke-width="0.7272727272727273"><g fill="rgb(255,0,0)" fill-opacity="1.0"><g fill="rgb(255,0,0)" fill-opacity="1.0"><path d="M 52.36363636363636,72.72727272727272 c 0.0,-4.819939634886924 -3.907333092385801,-8.727272727272727 -8.727272727272725 -8.727272727272727c -4.819939634886924,-2.951264350961418e-16 -8.727272727272727,3.9073330923858007 -8.727272727272727 8.727272727272723c -5.902528701922836e-16,4.819939634886924 3.9073330923858003,8.727272727272727 8.727272727272723 8.727272727272727c 4.819939634886924,8.853793052884255e-16 8.727272727272727,-3.9073330923858 8.72727272727273 -8.727272727272723Z" /></g></g></g><g stroke="rgb(0,0,0)" stroke-opacity="1.0" fill="rgb(255,0,0)" fill-opacity="1.0" stroke-width="0.7272727272727273"><g fill="rgb(255,0,0)" fill-opacity="1.0"><g fill="rgb(255,0,0)" fill-opacity="1.0"><path d="M 23.272727272727273,72.72727272727272 c 0.0,-4.819939634886924 -3.907333092385801,-8.727272727272727 -8.727272727272725 -8.727272727272727c -4.819939634886924,-2.951264350961418e-16 -8.727272727272727,3.9073330923858007 -8.727272727272727 8.727272727272723c -5.902528701922836e-16,4.819939634886924 3.9073330923858003,8.727272727272727 8.727272727272723 8.727272727272727c 4.819939634886924,8.853793052884255e-16 8.727272727272727,-3.9073330923858 8.72727272727273 -8.727272727272723Z" /></g></g></g><g stroke="rgb(0,0,0)" stroke-opacity="1.0" fill="rgb(255,0,0)" fill-opacity="1.0" stroke-width="0.7272727272727273"><g fill="rgb(255,0,0)" fill-opacity="1.0"><g fill="rgb(255,0,0)" fill-opacity="1.0"><path d="M 168.72727272727272,43.63636363636363 c 0.0,-4.819939634886924 -3.907333092385801,-8.727272727272727 -8.727272727272725 -8.727272727272727c -4.819939634886924,-2.951264350961418e-16 -8.727272727272727,3.9073330923858007 -8.727272727272727 8.727272727272723c -5.902528701922836e-16,4.819939634886924 3.9073330923858003,8.727272727272727 8.727272727272723 8.727272727272727c 4.819939634886924,8.853793052884255e-16 8.727272727272727,-3.9073330923858 8.72727272727273 -8.727272727272723Z" /></g></g></g><g stroke="rgb(0,0,0)" stroke-opacity="1.0" fill="rgb(255,0,0)" fill-opacity="1.0" stroke-width="0.7272727272727273"><g fill="rgb(255,0,0)" fill-opacity="1.0"><g fill="rgb(255,0,0)" fill-opacity="1.0"><path d="M 139.63636363636363,43.63636363636363 c 0.0,-4.819939634886924 -3.907333092385801,-8.727272727272727 -8.727272727272725 -8.727272727272727c -4.819939634886924,-2.951264350961418e-16 -8.727272727272727,3.9073330923858007 -8.727272727272727 8.727272727272723c -5.902528701922836e-16,4.819939634886924 3.9073330923858003,8.727272727272727 8.727272727272723 8.727272727272727c 4.819939634886924,8.853793052884255e-16 8.727272727272727,-3.9073330923858 8.72727272727273 -8.727272727272723Z" /></g></g></g><g stroke="rgb(0,0,0)" stroke-opacity="1.0" fill="rgb(255,0,0)" fill-opacity="1.0" stroke-width="0.7272727272727273"><g fill="rgb(255,0,0)" fill-opacity="1.0"><g fill="rgb(255,0,0)" fill-opacity="1.0"><path d="M 110.54545454545453,43.63636363636363 c 0.0,-4.819939634886924 -3.907333092385801,-8.727272727272727 -8.727272727272725 -8.727272727272727c -4.819939634886924,-2.951264350961418e-16 -8.727272727272727,3.9073330923858007 -8.727272727272727 8.727272727272723c -5.902528701922836e-16,4.819939634886924 3.9073330923858003,8.727272727272727 8.727272727272723 8.727272727272727c 4.819939634886924,8.853793052884255e-16 8.727272727272727,-3.9073330923858 8.72727272727273 -8.727272727272723Z" /></g></g></g><g stroke="rgb(0,0,0)" stroke-opacity="1.0" fill="rgb(255,0,0)" fill-opacity="1.0" stroke-width="0.7272727272727273"><g fill="rgb(255,0,0)" fill-opacity="1.0"><g fill="rgb(255,0,0)" fill-opacity="1.0"><path d="M 81.45454545454544,43.63636363636363 c 0.0,-4.819939634886924 -3.907333092385801,-8.727272727272727 -8.727272727272725 -8.727272727272727c -4.819939634886924,-2.951264350961418e-16 -8.727272727272727,3.9073330923858007 -8.727272727272727 8.727272727272723c -5.902528701922836e-16,4.819939634886924 3.9073330923858003,8.727272727272727 8.727272727272723 8.727272727272727c 4.819939634886924,8.853793052884255e-16 8.727272727272727,-3.9073330923858 8.72727272727273 -8.727272727272723Z" /></g></g></g><g stroke="rgb(0,0,0)" stroke-opacity="1.0" fill="rgb(255,0,0)" fill-opacity="1.0" stroke-width="0.7272727272727273"><g fill="rgb(255,0,0)" fill-opacity="1.0"><g fill="rgb(255,0,0)" fill-opacity="1.0"><path d="M 52.36363636363636,43.63636363636363 c 0.0,-4.819939634886924 -3.907333092385801,-8.727272727272727 -8.727272727272725 -8.727272727272727c -4.819939634886924,-2.951264350961418e-16 -8.727272727272727,3.9073330923858007 -8.727272727272727 8.727272727272723c -5.902528701922836e-16,4.819939634886924 3.9073330923858003,8.727272727272727 8.727272727272723 8.727272727272727c 4.819939634886924,8.853793052884255e-16 8.727272727272727,-3.9073330923858 8.72727272727273 -8.727272727272723Z" /></g></g></g><g stroke="rgb(0,0,0)" stroke-opacity="1.0" fill="rgb(255,0,0)" fill-opacity="1.0" stroke-width="0.7272727272727273"><g fill="rgb(255,0,0)" fill-opacity="1.0"><g fill="rgb(255,0,0)" fill-opacity="1.0"><path d="M 23.272727272727273,43.63636363636363 c 0.0,-4.819939634886924 -3.907333092385801,-8.727272727272727 -8.727272727272725 -8.727272727272727c -4.819939634886924,-2.951264350961418e-16 -8.727272727272727,3.9073330923858007 -8.727272727272727 8.727272727272723c -5.902528701922836e-16,4.819939634886924 3.9073330923858003,8.727272727272727 8.727272727272723 8.727272727272727c 4.819939634886924,8.853793052884255e-16 8.727272727272727,-3.9073330923858 8.72727272727273 -8.727272727272723Z" /></g></g></g><g stroke="rgb(0,0,0)" stroke-opacity="1.0" fill="rgb(255,0,0)" fill-opacity="1.0" stroke-width="0.7272727272727273"><g fill="rgb(255,0,0)" fill-opacity="1.0"><g fill="rgb(255,0,0)" fill-opacity="1.0"><path d="M 226.9090909090909,14.545454545454545 c 0.0,-4.819939634886924 -3.907333092385801,-8.727272727272727 -8.727272727272725 -8.727272727272727c -4.819939634886924,-2.951264350961418e-16 -8.727272727272727,3.9073330923858007 -8.727272727272727 8.727272727272723c -5.902528701922836e-16,4.819939634886924 3.9073330923858003,8.727272727272727 8.727272727272723 8.727272727272727c 4.819939634886924,8.853793052884255e-16 8.727272727272727,-3.9073330923858 8.72727272727273 -8.727272727272723Z" /></g></g></g><g stroke="rgb(0,0,0)" stroke-opacity="1.0" fill="rgb(255,0,0)" fill-opacity="1.0" stroke-width="0.7272727272727273"><g fill="rgb(255,0,0)" fill-opacity="1.0"><g fill="rgb(255,0,0)" fill-opacity="1.0"><path d="M 197.8181818181818,14.545454545454545 c 0.0,-4.819939634886924 -3.907333092385801,-8.727272727272727 -8.727272727272725 -8.727272727272727c -4.819939634886924,-2.951264350961418e-16 -8.727272727272727,3.9073330923858007 -8.727272727272727 8.727272727272723c -5.902528701922836e-16,4.819939634886924 3.9073330923858003,8.727272727272727 8.727272727272723 8.727272727272727c 4.819939634886924,8.853793052884255e-16 8.727272727272727,-3.9073330923858 8.72727272727273 -8.727272727272723Z" /></g></g></g><g stroke="rgb(0,0,0)" stroke-opacity="1.0" fill="rgb(255,0,0)" fill-opacity="1.0" stroke-width="0.7272727272727273"><g fill="rgb(255,0,0)" fill-opacity="1.0"><g fill="rgb(255,0,0)" fill-opacity="1.0"><path d="M 168.72727272727272,14.545454545454545 c 0.0,-4.819939634886924 -3.907333092385801,-8.727272727272727 -8.727272727272725 -8.727272727272727c -4.819939634886924,-2.951264350961418e-16 -8.727272727272727,3.9073330923858007 -8.727272727272727 8.727272727272723c -5.902528701922836e-16,4.819939634886924 3.9073330923858003,8.727272727272727 8.727272727272723 8.727272727272727c 4.819939634886924,8.853793052884255e-16 8.727272727272727,-3.9073330923858 8.72727272727273 -8.727272727272723Z" /></g></g></g><g stroke="rgb(0,0,0)" stroke-opacity="1.0" fill="rgb(255,0,0)" fill-opacity="1.0" stroke-width="0.7272727272727273"><g fill="rgb(255,0,0)" fill-opacity="1.0"><g fill="rgb(255,0,0)" fill-opacity="1.0"><path d="M 139.63636363636363,14.545454545454545 c 0.0,-4.819939634886924 -3.907333092385801,-8.727272727272727 -8.727272727272725 -8.727272727272727c -4.819939634886924,-2.951264350961418e-16 -8.727272727272727,3.9073330923858007 -8.727272727272727 8.727272727272723c -5.902528701922836e-16,4.819939634886924 3.9073330923858003,8.727272727272727 8.727272727272723 8.727272727272727c 4.819939634886924,8.853793052884255e-16 8.727272727272727,-3.9073330923858 8.72727272727273 -8.727272727272723Z" /></g></g></g><g stroke="rgb(0,0,0)" stroke-opacity="1.0" fill="rgb(255,0,0)" fill-opacity="1.0" stroke-width="0.7272727272727273"><g fill="rgb(255,0,0)" fill-opacity="1.0"><g fill="rgb(255,0,0)" fill-opacity="1.0"><path d="M 110.54545454545453,14.545454545454545 c 0.0,-4.819939634886924 -3.907333092385801,-8.727272727272727 -8.727272727272725 -8.727272727272727c -4.819939634886924,-2.951264350961418e-16 -8.727272727272727,3.9073330923858007 -8.727272727272727 8.727272727272723c -5.902528701922836e-16,4.819939634886924 3.9073330923858003,8.727272727272727 8.727272727272723 8.727272727272727c 4.819939634886924,8.853793052884255e-16 8.727272727272727,-3.9073330923858 8.72727272727273 -8.727272727272723Z" /></g></g></g><g stroke="rgb(0,0,0)" stroke-opacity="1.0" fill="rgb(255,0,0)" fill-opacity="1.0" stroke-width="0.7272727272727273"><g fill="rgb(255,0,0)" fill-opacity="1.0"><g fill="rgb(255,0,0)" fill-opacity="1.0"><path d="M 81.45454545454544,14.545454545454545 c 0.0,-4.819939634886924 -3.907333092385801,-8.727272727272727 -8.727272727272725 -8.727272727272727c -4.819939634886924,-2.951264350961418e-16 -8.727272727272727,3.9073330923858007 -8.727272727272727 8.727272727272723c -5.902528701922836e-16,4.819939634886924 3.9073330923858003,8.727272727272727 8.727272727272723 8.727272727272727c 4.819939634886924,8.853793052884255e-16 8.727272727272727,-3.9073330923858 8.72727272727273 -8.727272727272723Z" /></g></g></g><g stroke="rgb(0,0,0)" stroke-opacity="1.0" fill="rgb(255,0,0)" fill-opacity="1.0" stroke-width="0.7272727272727273"><g fill="rgb(255,0,0)" fill-opacity="1.0"><g fill="rgb(255,0,0)" fill-opacity="1.0"><path d="M 52.36363636363636,14.545454545454545 c 0.0,-4.819939634886924 -3.907333092385801,-8.727272727272727 -8.727272727272725 -8.727272727272727c -4.819939634886924,-2.951264350961418e-16 -8.727272727272727,3.9073330923858007 -8.727272727272727 8.727272727272723c -5.902528701922836e-16,4.819939634886924 3.9073330923858003,8.727272727272727 8.727272727272723 8.727272727272727c 4.819939634886924,8.853793052884255e-16 8.727272727272727,-3.9073330923858 8.72727272727273 -8.727272727272723Z" /></g></g></g><g stroke="rgb(0,0,0)" stroke-opacity="1.0" fill="rgb(255,0,0)" fill-opacity="1.0" stroke-width="0.7272727272727273"><g fill="rgb(255,0,0)" fill-opacity="1.0"><g fill="rgb(255,0,0)" fill-opacity="1.0"><path d="M 23.272727272727273,14.545454545454545 c 0.0,-4.819939634886924 -3.907333092385801,-8.727272727272727 -8.727272727272725 -8.727272727272727c -4.819939634886924,-2.951264350961418e-16 -8.727272727272727,3.9073330923858007 -8.727272727272727 8.727272727272723c -5.902528701922836e-16,4.819939634886924 3.9073330923858003,8.727272727272727 8.727272727272723 8.727272727272727c 4.819939634886924,8.853793052884255e-16 8.727272727272727,-3.9073330923858 8.72727272727273 -8.727272727272723Z" /></g></g></g></g></g></g></g></svg>