<?xml version="1.0" encoding="UTF-8"?>
<!DOCTYPE svg PUBLIC "-//W3C//DTD SVG 1.1//EN"
    "http://www.w3.org/Graphics/SVG/1.1/DTD/svg11.dtd">
<svg xmlns="http://www.w3.org/2000/svg" xmlns:xlink="http://www.w3.org/1999/xlink" version="1.1" width="256.0" height="252.11078477112528" font-size="1" viewBox="0 0 256 252" stroke="rgb(0,0,0)" stroke-opacity="1"><g><g fill="rgb(0,0,0)" fill-opacity="0.0"><g stroke="rgb(0,0,0)" stroke-opacity="1.0" stroke-width="1.0161918000173635" stroke-linecap="butt" stroke-linejoin="miter" font-size="1.0em" stroke-miterlimit="10.0"><g fill="rgb(0,0,255)" fill-opacity="1.0" stroke-width="0.0"><g fill="rgb(0,0,255)" fill-opacity="1.0"><g fill="rgb(0,0,255)" fill-opacity="1.0"><g fill="rgb(0,0,255)" fill-opacity="1.0"><g fill="rgb(0,0,255)" fill-opacity="1.0"><g fill="rgb(0,0,255)" fill-opacity="1.0"><g fill="rgb(0,0,255)" fill-opacity="1.0"><g fill="rgb(0,0,255)" fill-opacity="1.0"><g fill="rgb(0,0,255)" fill-opacity="1.0"><g fill="rgb(0,0,255)" fill-opacity="1.0"><g fill="rgb(0,0,0)" fill-opacity="1.0"><g fill="rgb(0,0,255)" fill-opacity="1.0"><text transform="matrix(24.788545388692057,0.0,0.0,24.788545388692057,58.9536640353175,45.86642929392933)" dominant-baseline="middle" text-anchor="middle" stroke="none">9</text></g></g><g fill="rgb(0,0,0)" fill-opacity="1.0"><g fill="rgb(0,0,255)" fill-opacity="1.0"><text transform="matrix(24.788545388692057,0.0,0.0,24.788545388692057,22.214876033057877,109.49987672234495)" dominant-baseline="middle" text-anchor="middle" stroke="none">8</text></g></g></g><g fill="rgb(0,0,0)" fill-opacity="1.0"><g fill="rgb(0,0,255)" fill-opacity="1.0"><text transform="matrix(24.788545388692057,0.0,0.0,24.788545388692057,34.97412320562606,181.86116324413933)" dominant-baseline="middle" text-anchor="middle" stroke="none">7</text></g></g></g><g fill="rgb(0,0,0)" fill-opacity="1.0"><g fill="rgb(0,0,255)" fill-opacity="1.0"><text transform="matrix(24.788545388692057,0.0,0.0,24.788545388692057,91.26121199774039,229.09163868964527)" dominant-baseline="middle" text-anchor="middle" stroke="none">6</text></g></g></g><g fill="rgb(0,0,0)" fill-opacity="1.0"><g fill="rgb(0,0,255)" fill-opacity="1.0"><text transform="matrix(24.788545388692057,0.0,0.0,24.788545388692057,164.7387880022597,229.09163868964527)" dominant-baseline="middle" text-anchor="middle" stroke="none">5</text></g></g></g><g fill="rgb(0,0,0)" fill-opacity="1.0"><g fill="rgb(0,0,255)" fill-opacity="1.0"><text transform="matrix(24.788545388692057,0.0,0.0,24.788545388692057,221.02587679437403,181.86116324413928)" dominant-baseline="middle" text-anchor="middle" stroke="none">4</text></g></g></g><g fill="rgb(0,0,0)" fill-opacity="1.0"><g fill="rgb(0,0,255)" fill-opacity="1.0"><text transform="matrix(24.788545388692057,0.0,0.0,24.788545388692057,233.78512396694217,109.49987672234491)" dominant-baseline="middle" text-anchor="middle" stroke="none">3</text></g></g></g><g fill="rgb(0,0,0)" fill-opacity="1.0"><g fill="rgb(0,0,255)" fill-opacity="1.0"><text transform="matrix(24.788545388692057,0.0,0.0,24.788545388692057,197.04633596468253,45.8664292939293)" dominant-baseline="middle" text-anchor="middle" stroke="none">2</text></g></g></g><g fill="rgb(0,0,0)" fill-opacity="1.0"><g fill="rgb(0,0,255)" fill-opacity="1.0"><text transform="matrix(24.788545388692057,0.0,0.0,24.788545388692057,128.00000000000003,20.735618217640905)" dominant-baseline="middle" text-anchor="middle" stroke="none">1</text></g></g></g></g></g><g stroke="rgb(255,0,0)" stroke-opacity="1.0" stroke-width="6.6102787703178825"><path d="M 210.62848462897355,119.47665734926427 c 0.0,-45.63445196221021 -36.99403266676331,-82.62848462897352 -82.62848462897351 -82.62848462897352c -45.63445196221021,-2.7942119913062335e-15 -82.62848462897352,36.9940326667633 -82.62848462897352 82.6284846289735c -5.588423982612467e-15,45.63445196221021 36.9940326667633,82.62848462897352 82.62848462897348 82.62848462897352c 45.63445196221021,8.3826359739187e-15 82.62848462897352,-36.994032666763296 82.62848462897357 -82.6284846289735Z" /></g><g stroke="rgb(0,0,0)" stroke-opacity="1.0" fill="rgb(255,165,0)" fill-opacity="1.0" stroke-width="1.6525696925794706"><g fill="rgb(255,165,0)" fill-opacity="1.0"><g fill="rgb(255,165,0)" fill-opacity="1.0"><g fill="rgb(255,165,0)" fill-opacity="1.0"><g fill="rgb(255,165,0)" fill-opacity="1.0"><g><g fill="rgb(255,165,0)" fill-opacity="1.0"><g fill="rgb(255,165,0)" fill-opacity="1.0"><path d="M 67.73159719683085,52.04814162444856 l -28.260606155584327,48.94880571416585 c -2.281722598110509,3.952059468705467 -0.9276470236638324,9.005538309828474 3.0244124450416336 11.287260907938983c 3.952059468705467,2.2817225981105094 9.005538309828474,0.9276470236638328 11.287260907938983 -3.0244124450416328l 28.260606155584327,-48.94880571416585 c 2.281722598110509,-3.952059468705467 0.927647023663832,-9.005538309828474 -3.0244124450416345 -11.287260907938983c -3.952059468705467,-2.2817225981105094 -9.005538309828474,-0.9276470236638324 -11.287260907938986 3.0244124450416336Z" /></g></g></g><g><g fill="rgb(255,165,0)" fill-opacity="1.0"><g fill="rgb(255,165,0)" fill-opacity="1.0"><path d="M 51.13037662242908,167.12060881308778 l 43.29776060931872,36.331134958081485 c 3.495801834043109,2.933326029614429 8.707639732390161,2.4773492973742828 11.64096576200459 -1.0184525366688244c 0.9323202645137305,-1.1110960246826247 1.5557430576990043,-2.448030519071843 1.8076080788896125 -3.8764280347477618l 28.260606155584334,-160.2738619015418 c 0.7924339422066867,-4.494116209684779 -2.20837244062142,-8.779711863939754 -6.702488650306198 -9.57214580614644c -3.4209150223784612,-0.6031996171562244 -6.853821179049025,0.9975908134267045 -8.59066525441043 4.005892996777644l -71.55836676490306,123.94272694346033 c -2.004953927164585,3.472682068683816 -1.2271875654055806,7.883614296037856 1.84458006382242 10.46113338078537Z" /></g></g></g></g><g><g fill="rgb(255,165,0)" fill-opacity="1.0"><g fill="rgb(255,165,0)" fill-opacity="1.0"><path d="M 161.57186276825226,203.45174377116925 l 43.29776060931873,-36.33113495808153 c 2.2613872731848765,-1.8975292268784263 3.3386754938661554,-4.8573542874446884 2.8260606155584305 -7.764537727256825l -18.44580063822424,-104.61133380785381 c -0.7924339422066877,-4.494116209684778 -5.078029596461661,-7.494922592512885 -9.57214580614644 -6.702488650306197c -3.4209150223784626,0.603199617156225 -6.099289033149974,3.281573627927738 -6.702488650306198 6.7024886503062l -24.851959971094487,140.94246876593533 c -0.7924339422066862,4.494116209684779 2.208372440621421,8.779711863939752 6.702488650306198 9.57214580614644c 2.4053330636402883,0.4241251167099334 4.875068211267832,-0.23763842161562668 6.746085190588008 -1.807608078889615Z" /></g></g></g></g><g><g fill="rgb(255,165,0)" fill-opacity="1.0"><g fill="rgb(255,165,0)" fill-opacity="1.0"><path d="M 217.63602074516058,105.12837157006305 c 0.0,-4.5634451962210205 -3.699403266676331,-8.262848462897352 -8.26284846289735 -8.262848462897352c -4.5634451962210205,-2.794211991306233e-16 -8.262848462897352,3.6994032666763306 -8.262848462897352 8.262848462897349c -5.588423982612466e-16,4.5634451962210205 3.69940326667633,8.262848462897352 8.262848462897349 8.262848462897352c 4.5634451962210205,8.3826359739187e-16 8.262848462897352,-3.6994032666763297 8.262848462897356 -8.262848462897349Z" /></g></g></g></g></g></g><g fill="rgb(0,0,0)" fill-opacity="1.0" stroke-width="0.0"><g fill="rgb(0,0,0)" fill-opacity="1.0"><g fill="rgb(0,0,0)" fill-opacity="1.0"><g fill="rgb(0,0,0)" fill-opacity="1.0"><g fill="rgb(0,0,0)" fill-opacity="1.0"><g fill="rgb(0,0,0)" fill-opacity="1.0"><g fill="rgb(0,0,0)" fill-opacity="1.0"><g fill="rgb(0,0,0)" fill-opacity="1.0"><g fill="rgb(0,0,0)" fill-opacity="1.0"><g fill="rgb(0,0,0)" fill-opacity="1.0"><g stroke="rgb(0,0,0)" stroke-opacity="1.0"><g fill="rgb(0,0,0)" fill-opacity="1.0"><g fill="rgb(0,0,0)" fill-opacity="1.0"><path d="M 79.01885810476983,56.17956585589723 c 0.0,-2.2817225981105103 -1.8497016333381655,-4.131424231448676 -4.131424231448675 -4.131424231448676c -2.2817225981105103,-1.3971059956531165e-16 -4.131424231448676,1.8497016333381653 -4.131424231448676 4.131424231448674c -2.794211991306233e-16,2.2817225981105103 1.849701633338165,4.131424231448676 4.131424231448674 4.131424231448676c 2.2817225981105103,4.19131798695935e-16 4.131424231448676,-1.8497016333381648 4.131424231448678 -4.131424231448674Z" /></g></g></g><g stroke="rgb(0,0,0)" stroke-opacity="1.0"><g fill="rgb(0,0,0)" fill-opacity="1.0"><g fill="rgb(0,0,0)" fill-opacity="1.0"><path d="M 50.75825194918551,105.12837157006308 c 0.0,-2.2817225981105103 -1.8497016333381655,-4.131424231448676 -4.131424231448675 -4.131424231448676c -2.2817225981105103,-1.3971059956531165e-16 -4.131424231448676,1.8497016333381653 -4.131424231448676 4.131424231448674c -2.794211991306233e-16,2.2817225981105103 1.849701633338165,4.131424231448676 4.131424231448674 4.131424231448676c 2.2817225981105103,4.19131798695935e-16 4.131424231448676,-1.8497016333381648 4.131424231448678 -4.131424231448674Z" /></g></g></g></g><g stroke="rgb(0,0,0)" stroke-opacity="1.0"><g fill="rgb(0,0,0)" fill-opacity="1.0"><g fill="rgb(0,0,0)" fill-opacity="1.0"><path d="M 60.57305746654565,160.79089966375108 c 0.0,-2.2817225981105103 -1.8497016333381655,-4.131424231448676 -4.131424231448675 -4.131424231448676c -2.2817225981105103,-1.3971059956531165e-16 -4.131424231448676,1.8497016333381653 -4.131424231448676 4.131424231448674c -2.794211991306233e-16,2.2817225981105103 1.849701633338165,4.131424231448676 4.131424231448674 4.131424231448676c 2.2817225981105103,4.19131798695935e-16 4.131424231448676,-1.8497016333381648 4.131424231448678 -4.131424231448674Z" /></g></g></g></g><g stroke="rgb(0,0,0)" stroke-opacity="1.0"><g fill="rgb(0,0,0)" fill-opacity="1.0"><g fill="rgb(0,0,0)" fill-opacity="1.0"><path d="M 103.87081807586438,197.12203462183254 c 0.0,-2.2817225981105103 -1.8497016333381655,-4.131424231448676 -4.131424231448675 -4.131424231448676c -2.2817225981105103,-1.3971059956531165e-16 -4.131424231448676,1.8497016333381653 -4.131424231448676 4.131424231448674c -2.794211991306233e-16,2.2817225981105103 1.849701633338165,4.131424231448676 4.131424231448674 4.131424231448676c 2.2817225981105103,4.19131798695935e-16 4.131424231448676,-1.8497016333381648 4.131424231448678 -4.131424231448674Z" /></g></g></g></g><g stroke="rgb(0,0,0)" stroke-opacity="1.0"><g fill="rgb(0,0,0)" fill-opacity="1.0"><g fill="rgb(0,0,0)" fill-opacity="1.0"><path d="M 160.39203038703306,197.12203462183254 c 0.0,-2.2817225981105103 -1.8497016333381655,-4.131424231448676 -4.131424231448675 -4.131424231448676c -2.2817225981105103,-1.3971059956531165e-16 -4.131424231448676,1.8497016333381653 -4.131424231448676 4.131424231448674c -2.794211991306233e-16,2.2817225981105103 1.849701633338165,4.131424231448676 4.131424231448674 4.131424231448676c 2.2817225981105103,4.19131798695935e-16 4.131424231448676,-1.8497016333381648 4.131424231448678 -4.131424231448674Z" /></g></g></g></g><g stroke="rgb(0,0,0)" stroke-opacity="1.0"><g fill="rgb(0,0,0)" fill-opacity="1.0"><g fill="rgb(0,0,0)" fill-opacity="1.0"><path d="M 203.68979099635177,160.79089966375102 c 0.0,-2.2817225981105103 -1.8497016333381655,-4.131424231448676 -4.131424231448675 -4.131424231448676c -2.2817225981105103,-1.3971059956531165e-16 -4.131424231448676,1.8497016333381653 -4.131424231448676 4.131424231448674c -2.794211991306233e-16,2.2817225981105103 1.849701633338165,4.131424231448676 4.131424231448674 4.131424231448676c 2.2817225981105103,4.19131798695935e-16 4.131424231448676,-1.8497016333381648 4.131424231448678 -4.131424231448674Z" /></g></g></g></g><g stroke="rgb(0,0,0)" stroke-opacity="1.0"><g fill="rgb(0,0,0)" fill-opacity="1.0"><g fill="rgb(0,0,0)" fill-opacity="1.0"><path d="M 213.5045965137119,105.12837157006305 c 0.0,-2.2817225981105103 -1.8497016333381655,-4.131424231448676 -4.131424231448675 -4.131424231448676c -2.2817225981105103,-1.3971059956531165e-16 -4.131424231448676,1.8497016333381653 -4.131424231448676 4.131424231448674c -2.794211991306233e-16,2.2817225981105103 1.849701633338165,4.131424231448676 4.131424231448674 4.131424231448676c 2.2817225981105103,4.19131798695935e-16 4.131424231448676,-1.8497016333381648 4.131424231448678 -4.131424231448674Z" /></g></g></g></g><g stroke="rgb(0,0,0)" stroke-opacity="1.0"><g fill="rgb(0,0,0)" fill-opacity="1.0"><g fill="rgb(0,0,0)" fill-opacity="1.0"><path d="M 185.24399035812755,56.179565855897216 c 0.0,-2.2817225981105103 -1.8497016333381655,-4.131424231448676 -4.131424231448675 -4.131424231448676c -2.2817225981105103,-1.3971059956531165e-16 -4.131424231448676,1.8497016333381653 -4.131424231448676 4.131424231448674c -2.794211991306233e-16,2.2817225981105103 1.849701633338165,4.131424231448676 4.131424231448674 4.131424231448676c 2.2817225981105103,4.19131798695935e-16 4.131424231448676,-1.8497016333381648 4.131424231448678 -4.131424231448674Z" /></g></g></g></g><g stroke="rgb(0,0,0)" stroke-opacity="1.0"><g fill="rgb(0,0,0)" fill-opacity="1.0"><g fill="rgb(0,0,0)" fill-opacity="1.0"><path d="M 132.1314242314487,36.84817272029075 c 0.0,-2.2817225981105103 -1.8497016333381655,-4.131424231448676 -4.131424231448675 -4.131424231448676c -2.2817225981105103,-1.3971059956531165e-16 -4.131424231448676,1.8497016333381653 -4.131424231448676 4.131424231448674c -2.794211991306233e-16,2.2817225981105103 1.849701633338165,4.131424231448676 4.131424231448674 4.131424231448676c 2.2817225981105103,4.19131798695935e-16 4.131424231448676,-1.8497016333381648 4.131424231448678 -4.131424231448674Z" /></g></g></g></g></g></g></g></g></g></svg>