<?xml version="1.0" encoding="UTF-8"?>
<!DOCTYPE svg PUBLIC "-//W3C//DTD SVG 1.1//EN"
    "http://www.w3.org/Graphics/SVG/1.1/DTD/svg11.dtd">
<svg xmlns="http://www.w3.org/2000/svg" xmlns:xlink="http://www.w3.org/1999/xlink" version="1.1" width="320.0" height="285.52595130832407" font-size="1" viewBox="0 0 320 286" stroke="rgb(0,0,0)" stroke-opacity="1"><g><g fill="rgb(0,0,0)" fill-opacity="0.0"><g stroke="rgb(0,0,0)" stroke-opacity="1.0" stroke-width="1.209087619115596" stroke-linecap="butt" stroke-linejoin="miter" font-size="1.0em" stroke-miterlimit="10.0"><g fill="rgb(124,252,0)" fill-opacity="1.0" stroke-width="1.5268767449642997"><g fill="rgb(124,252,0)" fill-opacity="1.0"><g fill="rgb(124,252,0)" fill-opacity="1.0"><g fill="rgb(124,252,0)" fill-opacity="1.0"><g fill="rgb(124,252,0)" fill-opacity="1.0"><g fill="rgb(124,252,0)" fill-opacity="1.0"><g><g fill="rgb(124,252,0)" fill-opacity="1.0"><g fill="rgb(124,252,0)" fill-opacity="1.0"><path d="M 174.54545454545453,15.268767449643008 l -26.446280991735534,15.268767449642999 l 26.446280991735538,15.268767449642993 l 26.446280991735534,-15.268767449642999 Z" /></g></g></g><g fill="rgb(124,252,0)" fill-opacity="1.0"><g fill="rgb(124,252,0)" fill-opacity="1.0"><g><g fill="rgb(124,252,0)" fill-opacity="1.0"><g fill="rgb(124,252,0)" fill-opacity="1.0"><path d="M 174.54545454545453,76.343837248215 l -26.446280991735534,15.268767449642999 l 26.446280991735538,15.268767449642993 l 26.446280991735534,-15.268767449642999 Z" /></g></g></g><g><g fill="rgb(124,252,0)" fill-opacity="1.0"><g fill="rgb(124,252,0)" fill-opacity="1.0"><path d="M 148.099173553719,61.075069798572 l -26.446280991735534,15.268767449642999 l 26.446280991735538,15.268767449642993 l 26.446280991735534,-15.268767449642999 Z" /></g></g></g></g><g><g fill="rgb(124,252,0)" fill-opacity="1.0"><g fill="rgb(124,252,0)" fill-opacity="1.0"><path d="M 200.99173553719007,61.075069798572 l -26.446280991735534,15.268767449642999 l 26.446280991735538,15.268767449642993 l 26.446280991735534,-15.268767449642999 Z" /></g></g></g></g></g><g fill="rgb(124,252,0)" fill-opacity="1.0"><g fill="rgb(124,252,0)" fill-opacity="1.0"><g><g fill="rgb(124,252,0)" fill-opacity="1.0"><g fill="rgb(124,252,0)" fill-opacity="1.0"><path d="M 121.65289256198346,106.881372147501 l -26.446280991735534,15.268767449642999 l 26.446280991735538,15.268767449642993 l 26.446280991735534,-15.268767449642999 Z" /></g></g></g><g><g fill="rgb(124,252,0)" fill-opacity="1.0"><g fill="rgb(124,252,0)" fill-opacity="1.0"><path d="M 253.88429752066116,122.15013959714398 l -26.446280991735534,15.268767449642999 l 26.446280991735538,15.268767449642993 l 26.446280991735534,-15.268767449642999 Z" /></g></g></g></g><g><g fill="rgb(124,252,0)" fill-opacity="1.0"><g fill="rgb(124,252,0)" fill-opacity="1.0"><path d="M 227.4380165289256,106.881372147501 l -26.446280991735534,15.268767449642999 l 26.446280991735538,15.268767449642993 l 26.446280991735534,-15.268767449642999 Z" /></g></g></g></g></g><g fill="rgb(124,252,0)" fill-opacity="1.0"><g fill="rgb(124,252,0)" fill-opacity="1.0"><g><g fill="rgb(124,252,0)" fill-opacity="1.0"><g fill="rgb(124,252,0)" fill-opacity="1.0"><path d="M 95.20661157024792,152.68767449643 l -26.446280991735534,15.268767449642999 l 26.446280991735538,15.268767449642993 l 26.446280991735534,-15.268767449642999 Z" /></g></g></g><g><g fill="rgb(124,252,0)" fill-opacity="1.0"><g fill="rgb(124,252,0)" fill-opacity="1.0"><path d="M 148.099173553719,152.68767449643 l -26.446280991735534,15.268767449642999 l 26.446280991735538,15.268767449642993 l 26.446280991735534,-15.268767449642999 Z" /></g></g></g></g><g><g fill="rgb(124,252,0)" fill-opacity="1.0"><g fill="rgb(124,252,0)" fill-opacity="1.0"><path d="M 200.99173553719007,152.68767449642996 l -26.446280991735534,15.268767449642999 l 26.446280991735538,15.268767449642993 l 26.446280991735534,-15.268767449642999 Z" /></g></g></g></g></g><g fill="rgb(124,252,0)" fill-opacity="1.0"><g fill="rgb(124,252,0)" fill-opacity="1.0"><g fill="rgb(124,252,0)" fill-opacity="1.0"><g fill="rgb(124,252,0)" fill-opacity="1.0"><g><g fill="rgb(124,252,0)" fill-opacity="1.0"><g fill="rgb(124,252,0)" fill-opacity="1.0"><path d="M 42.31404958677686,213.76274429500197 l -26.446280991735534,15.268767449642999 l 26.446280991735538,15.268767449642993 l 26.446280991735534,-15.268767449642999 Z" /></g></g></g><g><g fill="rgb(124,252,0)" fill-opacity="1.0"><g fill="rgb(124,252,0)" fill-opacity="1.0"><path d="M 68.7603305785124,198.493976845359 l -26.446280991735534,15.268767449642999 l 26.446280991735538,15.268767449642993 l 26.446280991735534,-15.268767449642999 Z" /></g></g></g></g><g><g fill="rgb(124,252,0)" fill-opacity="1.0"><g fill="rgb(124,252,0)" fill-opacity="1.0"><path d="M 121.65289256198346,198.493976845359 l -26.446280991735534,15.268767449642999 l 26.446280991735538,15.268767449642993 l 26.446280991735534,-15.268767449642999 Z" /></g></g></g></g><g><g fill="rgb(124,252,0)" fill-opacity="1.0"><g fill="rgb(124,252,0)" fill-opacity="1.0"><path d="M 227.4380165289256,198.49397684535896 l -26.446280991735534,15.268767449642999 l 26.446280991735538,15.268767449642993 l 26.446280991735534,-15.268767449642999 Z" /></g></g></g></g><g><g fill="rgb(124,252,0)" fill-opacity="1.0"><g fill="rgb(124,252,0)" fill-opacity="1.0"><path d="M 280.3305785123967,198.49397684535896 l -26.446280991735534,15.268767449642999 l 26.446280991735538,15.268767449642993 l 26.446280991735534,-15.268767449642999 Z" /></g></g></g></g></g></g></g><g fill="rgb(205,92,92)" fill-opacity="1.0" stroke-width="1.5268767449642997"><g fill="rgb(205,92,92)" fill-opacity="1.0"><g fill="rgb(205,92,92)" fill-opacity="1.0"><g fill="rgb(205,92,92)" fill-opacity="1.0"><g fill="rgb(205,92,92)" fill-opacity="1.0"><g fill="rgb(205,92,92)" fill-opacity="1.0"><g><g fill="rgb(205,92,92)" fill-opacity="1.0"><g fill="rgb(205,92,92)" fill-opacity="1.0"><path d="M 200.99173553719007,61.075069798572 v -30.53753489928599 l -26.446280991735534,15.268767449642999 v 30.53753489928599 Z" /></g></g></g><g fill="rgb(205,92,92)" fill-opacity="1.0"><g><g fill="rgb(205,92,92)" fill-opacity="1.0"><g fill="rgb(205,92,92)" fill-opacity="1.0"><path d="M 200.99173553719007,122.15013959714398 v -30.53753489928599 l -26.446280991735534,15.268767449642999 v 30.53753489928599 Z" /></g></g></g><g><g fill="rgb(205,92,92)" fill-opacity="1.0"><g fill="rgb(205,92,92)" fill-opacity="1.0"><path d="M 227.4380165289256,106.881372147501 v -30.53753489928599 l -26.446280991735534,15.268767449642999 v 30.53753489928599 Z" /></g></g></g></g></g><g fill="rgb(205,92,92)" fill-opacity="1.0"><g fill="rgb(205,92,92)" fill-opacity="1.0"><g><g fill="rgb(205,92,92)" fill-opacity="1.0"><g fill="rgb(205,92,92)" fill-opacity="1.0"><path d="M 148.099173553719,152.68767449643 v -30.53753489928599 l -26.446280991735534,15.268767449642999 v 30.53753489928599 Z" /></g></g></g><g><g fill="rgb(205,92,92)" fill-opacity="1.0"><g fill="rgb(205,92,92)" fill-opacity="1.0"><path d="M 200.99173553719007,152.68767449642996 v -30.53753489928599 l -26.446280991735534,15.268767449642999 v 30.53753489928599 Z" /></g></g></g></g><g><g fill="rgb(205,92,92)" fill-opacity="1.0"><g fill="rgb(205,92,92)" fill-opacity="1.0"><path d="M 280.3305785123967,167.95644194607297 v -30.53753489928599 l -26.446280991735534,15.268767449642999 v 30.53753489928599 Z" /></g></g></g></g></g><g fill="rgb(205,92,92)" fill-opacity="1.0"><g fill="rgb(205,92,92)" fill-opacity="1.0"><g fill="rgb(205,92,92)" fill-opacity="1.0"><g><g fill="rgb(205,92,92)" fill-opacity="1.0"><g fill="rgb(205,92,92)" fill-opacity="1.0"><path d="M 121.65289256198346,198.493976845359 v -30.53753489928599 l -26.446280991735534,15.268767449642999 v 30.53753489928599 Z" /></g></g></g><g><g fill="rgb(205,92,92)" fill-opacity="1.0"><g fill="rgb(205,92,92)" fill-opacity="1.0"><path d="M 174.54545454545453,198.49397684535896 v -30.53753489928599 l -26.446280991735534,15.268767449642999 v 30.53753489928599 Z" /></g></g></g></g><g><g fill="rgb(205,92,92)" fill-opacity="1.0"><g fill="rgb(205,92,92)" fill-opacity="1.0"><path d="M 227.4380165289256,198.49397684535896 v -30.53753489928599 l -26.446280991735534,15.268767449642999 v 30.53753489928599 Z" /></g></g></g></g><g><g fill="rgb(205,92,92)" fill-opacity="1.0"><g fill="rgb(205,92,92)" fill-opacity="1.0"><path d="M 280.3305785123967,198.49397684535896 v -30.53753489928599 l -26.446280991735534,15.268767449642999 v 30.53753489928599 Z" /></g></g></g></g></g><g fill="rgb(205,92,92)" fill-opacity="1.0"><g fill="rgb(205,92,92)" fill-opacity="1.0"><g fill="rgb(205,92,92)" fill-opacity="1.0"><g fill="rgb(205,92,92)" fill-opacity="1.0"><g fill="rgb(205,92,92)" fill-opacity="1.0"><g><g fill="rgb(205,92,92)" fill-opacity="1.0"><g fill="rgb(205,92,92)" fill-opacity="1.0"><path d="M 68.76033057851241,259.56904664393096 v -30.53753489928599 l -26.446280991735534,15.268767449642999 v 30.53753489928599 Z" /></g></g></g><g><g fill="rgb(205,92,92)" fill-opacity="1.0"><g fill="rgb(205,92,92)" fill-opacity="1.0"><path d="M 95.20661157024793,244.30027919428795 v -30.53753489928599 l -26.446280991735534,15.268767449642999 v 30.53753489928599 Z" /></g></g></g></g><g><g fill="rgb(205,92,92)" fill-opacity="1.0"><g fill="rgb(205,92,92)" fill-opacity="1.0"><path d="M 148.099173553719,244.30027919428795 v -30.53753489928599 l -26.446280991735534,15.268767449642999 v 30.53753489928599 Z" /></g></g></g></g><g><g fill="rgb(205,92,92)" fill-opacity="1.0"><g fill="rgb(205,92,92)" fill-opacity="1.0"><path d="M 174.54545454545453,229.03151174464494 v -30.53753489928599 l -26.446280991735534,15.268767449642999 v 30.53753489928599 Z" /></g></g></g></g><g><g fill="rgb(205,92,92)" fill-opacity="1.0"><g fill="rgb(205,92,92)" fill-opacity="1.0"><path d="M 253.88429752066116,244.30027919428795 v -30.53753489928599 l -26.446280991735534,15.268767449642999 v 30.53753489928599 Z" /></g></g></g></g><g><g fill="rgb(205,92,92)" fill-opacity="1.0"><g fill="rgb(205,92,92)" fill-opacity="1.0"><path d="M 306.77685950413223,244.30027919428795 v -30.53753489928599 l -26.446280991735534,15.268767449642999 v 30.53753489928599 Z" /></g></g></g></g></g></g></g><g fill="rgb(95,158,160)" fill-opacity="1.0" stroke-width="1.5268767449642997"><g fill="rgb(95,158,160)" fill-opacity="1.0"><g fill="rgb(95,158,160)" fill-opacity="1.0"><g fill="rgb(95,158,160)" fill-opacity="1.0"><g fill="rgb(95,158,160)" fill-opacity="1.0"><g fill="rgb(95,158,160)" fill-opacity="1.0"><g><g fill="rgb(95,158,160)" fill-opacity="1.0"><g fill="rgb(95,158,160)" fill-opacity="1.0"><path d="M 148.099173553719,61.075069798572 v -30.53753489928599 l 26.446280991735538,15.268767449642993 v 30.53753489928599 Z" /></g></g></g><g fill="rgb(95,158,160)" fill-opacity="1.0"><g><g fill="rgb(95,158,160)" fill-opacity="1.0"><g fill="rgb(95,158,160)" fill-opacity="1.0"><path d="M 148.099173553719,122.15013959714399 v -30.53753489928599 l 26.446280991735538,15.268767449642993 v 30.53753489928599 Z" /></g></g></g><g><g fill="rgb(95,158,160)" fill-opacity="1.0"><g fill="rgb(95,158,160)" fill-opacity="1.0"><path d="M 121.65289256198346,106.881372147501 v -30.53753489928599 l 26.446280991735538,15.268767449642993 v 30.53753489928599 Z" /></g></g></g></g></g><g fill="rgb(95,158,160)" fill-opacity="1.0"><g fill="rgb(95,158,160)" fill-opacity="1.0"><g fill="rgb(95,158,160)" fill-opacity="1.0"><g><g fill="rgb(95,158,160)" fill-opacity="1.0"><g fill="rgb(95,158,160)" fill-opacity="1.0"><path d="M 227.4380165289256,167.95644194607297 v -30.53753489928599 l 26.446280991735538,15.268767449642993 v 30.53753489928599 Z" /></g></g></g><g><g fill="rgb(95,158,160)" fill-opacity="1.0"><g fill="rgb(95,158,160)" fill-opacity="1.0"><path d="M 200.99173553719007,152.68767449642996 v -30.53753489928599 l 26.446280991735538,15.268767449642993 v 30.53753489928599 Z" /></g></g></g></g><g><g fill="rgb(95,158,160)" fill-opacity="1.0"><g fill="rgb(95,158,160)" fill-opacity="1.0"><path d="M 148.099173553719,152.68767449643 v -30.53753489928599 l 26.446280991735538,15.268767449642993 v 30.53753489928599 Z" /></g></g></g></g><g><g fill="rgb(95,158,160)" fill-opacity="1.0"><g fill="rgb(95,158,160)" fill-opacity="1.0"><path d="M 95.20661157024792,152.68767449643 v -30.53753489928599 l 26.446280991735538,15.268767449642993 v 30.53753489928599 Z" /></g></g></g></g></g><g fill="rgb(95,158,160)" fill-opacity="1.0"><g fill="rgb(95,158,160)" fill-opacity="1.0"><g fill="rgb(95,158,160)" fill-opacity="1.0"><g><g fill="rgb(95,158,160)" fill-opacity="1.0"><g fill="rgb(95,158,160)" fill-opacity="1.0"><path d="M 227.4380165289256,198.49397684535896 v -30.53753489928599 l 26.446280991735538,15.268767449642993 v 30.53753489928599 Z" /></g></g></g><g><g fill="rgb(95,158,160)" fill-opacity="1.0"><g fill="rgb(95,158,160)" fill-opacity="1.0"><path d="M 174.54545454545453,198.49397684535896 v -30.53753489928599 l 26.446280991735538,15.268767449642993 v 30.53753489928599 Z" /></g></g></g></g><g><g fill="rgb(95,158,160)" fill-opacity="1.0"><g fill="rgb(95,158,160)" fill-opacity="1.0"><path d="M 121.65289256198346,198.493976845359 v -30.53753489928599 l 26.446280991735538,15.268767449642993 v 30.53753489928599 Z" /></g></g></g></g><g><g fill="rgb(95,158,160)" fill-opacity="1.0"><g fill="rgb(95,158,160)" fill-opacity="1.0"><path d="M 68.7603305785124,198.493976845359 v -30.53753489928599 l 26.446280991735538,15.268767449642993 v 30.53753489928599 Z" /></g></g></g></g></g><g fill="rgb(95,158,160)" fill-opacity="1.0"><g fill="rgb(95,158,160)" fill-opacity="1.0"><g fill="rgb(95,158,160)" fill-opacity="1.0"><g fill="rgb(95,158,160)" fill-opacity="1.0"><g><g fill="rgb(95,158,160)" fill-opacity="1.0"><g fill="rgb(95,158,160)" fill-opacity="1.0"><path d="M 253.88429752066116,244.30027919428795 v -30.53753489928599 l 26.446280991735538,15.268767449642993 v 30.53753489928599 Z" /></g></g></g><g><g fill="rgb(95,158,160)" fill-opacity="1.0"><g fill="rgb(95,158,160)" fill-opacity="1.0"><path d="M 200.99173553719007,244.30027919428795 v -30.53753489928599 l 26.446280991735538,15.268767449642993 v 30.53753489928599 Z" /></g></g></g></g><g><g fill="rgb(95,158,160)" fill-opacity="1.0"><g fill="rgb(95,158,160)" fill-opacity="1.0"><path d="M 174.54545454545453,229.03151174464494 v -30.53753489928599 l 26.446280991735538,15.268767449642993 v 30.53753489928599 Z" /></g></g></g></g><g><g fill="rgb(95,158,160)" fill-opacity="1.0"><g fill="rgb(95,158,160)" fill-opacity="1.0"><path d="M 95.20661157024793,244.30027919428795 v -30.53753489928599 l 26.446280991735538,15.268767449642993 v 30.53753489928599 Z" /></g></g></g></g><g><g fill="rgb(95,158,160)" fill-opacity="1.0"><g fill="rgb(95,158,160)" fill-opacity="1.0"><path d="M 15.867768595041298,259.56904664393096 v -30.53753489928599 l 26.446280991735538,15.268767449642993 v 30.53753489928599 Z" /></g></g></g></g></g></g></g></g></g></g></svg>